<?xml version="1.0" standalone="no"?>
<!DOCTYPE svg PUBLIC "-//W3C//DTD SVG 20010904//EN"
 "http://www.w3.org/TR/2001/REC-SVG-20010904/DTD/svg10.dtd">
<svg version="1.0" xmlns="http://www.w3.org/2000/svg"
 width="161.000000pt" height="161.000000pt" viewBox="0 0 161.000000 161.000000"
 preserveAspectRatio="xMidYMid meet">
<metadata>
Created by potrace 1.11, written by Peter Selinger 2001-2013
</metadata>
<g transform="translate(0.000000,161.000000) scale(0.100000,-0.100000)"
fill="#000000" stroke="none">
<path d="M302 1528 c-17 -17 -17 -759 0 -776 17 -17 259 -17 276 0 17 17 17
759 0 776 -8 8 -53 12 -138 12 -85 0 -130 -4 -138 -12z"/>
<path d="M652 1528 c-17 -17 -17 -459 0 -476 17 -17 259 -17 276 0 17 17 17
459 0 476 -8 8 -53 12 -138 12 -85 0 -130 -4 -138 -12z"/>
<path d="M1002 1528 c-17 -17 -17 -459 0 -476 17 -17 259 -17 276 0 17 17 17
459 0 476 -8 8 -53 12 -138 12 -85 0 -130 -4 -138 -12z"/>
<path d="M652 978 c-17 -17 -17 -859 0 -876 17 -17 259 -17 276 0 17 17 17
859 0 876 -17 17 -259 17 -276 0z"/>
<path d="M1002 978 c-17 -17 -17 -859 0 -876 17 -17 259 -17 276 0 17 17 17
859 0 876 -17 17 -259 17 -276 0z"/>
<path d="M302 678 c-17 -17 -17 -559 0 -576 17 -17 259 -17 276 0 17 17 17
559 0 576 -17 17 -259 17 -276 0z"/>
</g>
</svg>
